{
  "accessors": [
    {
      "bufferView": 2,
      "componentType": 5126,
      "count": 5658,
      "max": [
        1.2860441207885742,
        2.5258102416992188,
        1.3164926767349243
      ],
      "min": [
        -1.2860441207885742,
        -2.5258102416992188,
        -0.0005841038073413074
      ],
      "type": "VEC3"
    },
    {
      "bufferView": 2,
      "byteOffset": 67896,
      "componentType": 5126,
      "count": 5658,
      "max": [
        0.9999985098838806,
        0.9999998807907104,
        0.9999998807907104
      ],
      "min": [
        -0.9999985098838806,
        -1.0,
        -1.0
      ],
      "type": "VEC3"
    },
    {
      "bufferView": 3,
      "componentType": 5126,
      "count": 5658,
      "max": [
        1.0,
        1.0,
        1.0,
        1.0
      ],
      "min": [
        -1.0,
        -1.0,
        -0.9999250173568726,
        -1.0
      ],
      "type": "VEC4"
    },
    {
      "bufferView": 1,
      "componentType": 5126,
      "count": 5658,
      "max": [
        0.99609375,
        0.9955055713653564
      ],
      "min": [
        0.00390625,
        0.00390625
      ],
      "type": "VEC2"
    },
    {
      "bufferView": 0,
      "componentType": 5125,
      "count": 21342,
      "type": "SCALAR"
    }
  ],
  "asset": {
    "extras": {
      "author": "senya.frozenov (https://sketchfab.com/senya.frozenov)",
      "license": "CC-BY-4.0 (http://creativecommons.org/licenses/by/4.0/)",
      "source": "https://sketchfab.com/3d-models/cyberpunk-ghetto-delorean-6455952d4f884b83a8d22877f9aba213",
      "title": "Cyberpunk ghetto DeLorean"
    },
    "generator": "Sketchfab-15.16.0",
    "version": "2.0"
  },
  "bufferViews": [
    {
      "buffer": 0,
      "byteLength": 85368,
      "name": "floatBufferViews",
      "target": 34963
    },
    {
      "buffer": 0,
      "byteLength": 45264,
      "byteOffset": 85368,
      "byteStride": 8,
      "name": "floatBufferViews",
      "target": 34962
    },
    {
      "buffer": 0,
      "byteLength": 135792,
      "byteOffset": 130632,
      "byteStride": 12,
      "name": "floatBufferViews",
      "target": 34962
    },
    {
      "buffer": 0,
      "byteLength": 90528,
      "byteOffset": 266424,
      "byteStride": 16,
      "name": "floatBufferViews",
      "target": 34962
    }
  ],
  "buffers": [
    {
      "byteLength": 356952,
      "uri": "scene.bin"
    }
  ],
  "images": [
    {
      "uri": "textures/M_dmc_baseColor.png"
    },
    {
      "uri": "textures/M_dmc_metallicRoughness.png"
    },
    {
      "uri": "textures/M_dmc_emissive.png"
    },
    {
      "uri": "textures/M_dmc_normal.png"
    }
  ],
  "materials": [
    {
      "doubleSided": true,
      "emissiveFactor": [
        1.0,
        1.0,
        1.0
      ],
      "emissiveTexture": {
        "index": 2
      },
      "name": "M_dmc",
      "normalTexture": {
        "index": 3
      },
      "pbrMetallicRoughness": {
        "baseColorTexture": {
          "index": 0
        },
        "metallicRoughnessTexture": {
          "index": 1
        }
      }
    }
  ],
  "meshes": [
    {
      "name": "dmc_M_dmc_0",
      "primitives": [
        {
          "attributes": {
            "NORMAL": 1,
            "POSITION": 0,
            "TANGENT": 2,
            "TEXCOORD_0": 3
          },
          "indices": 4,
          "material": 0,
          "mode": 4
        }
      ]
    }
  ],
  "nodes": [
    {
      "children": [
        1
      ],
      "matrix": [
        1.0,
        0.0,
        0.0,
        0.0,
        0.0,
        2.220446049250313e-16,
        -1.0,
        0.0,
        0.0,
        1.0,
        2.220446049250313e-16,
        0.0,
        0.0,
        0.0,
        0.0,
        1.0
      ],
      "name": "Sketchfab_model"
    },
    {
      "children": [
        2
      ],
      "matrix": [
        0.009999999776482582,
        0.0,
        0.0,
        0.0,
        0.0,
        0.0,
        0.009999999776482582,
        0.0,
        0.0,
        -0.009999999776482582,
        0.0,
        0.0,
        0.0,
        0.0,
        0.0,
        1.0
      ],
      "name": "57fbeea647374b748a51da34acf0af2a.fbx"
    },
    {
      "children": [
        3
      ],
      "name": "RootNode"
    },
    {
      "children": [
        4
      ],
      "matrix": [
        106.48255157470703,
        0.0,
        0.0,
        0.0,
        0.0,
        -1.7348209645927e-05,
        -106.48255157470562,
        0.0,
        0.0,
        106.48255157470562,
        -1.7348209645927e-05,
        0.0,
        0.0,
        0.0,
        0.0,
        1.0
      ],
      "name": "dmc"
    },
    {
      "mesh": 0,
      "name": "dmc_M_dmc_0"
    }
  ],
  "samplers": [
    {
      "magFilter": 9729,
      "minFilter": 9987,
      "wrapS": 10497,
      "wrapT": 10497
    }
  ],
  "scene": 0,
  "scenes": [
    {
      "name": "Sketchfab_Scene",
      "nodes": [
        0
      ]
    }
  ],
  "textures": [
    {
      "sampler": 0,
      "source": 0
    },
    {
      "sampler": 0,
      "source": 1
    },
    {
      "sampler": 0,
      "source": 2
    },
    {
      "sampler": 0,
      "source": 3
    }
  ]
}
