<svg xmlns="http://www.w3.org/2000/svg" version="1.1" xmlns:xlink="http://www.w3.org/1999/xlink" xmlns:svgjs="http://svgjs.dev/svgjs" width="1000" height="623" viewBox="0 0 1000 623"><g transform="matrix(1,0,0,1,-0.6060606060606233,0.2522267206477409)"><svg viewBox="0 0 396 247" data-background-color="#ffffff" preserveAspectRatio="xMidYMid meet" height="623" width="1000" xmlns="http://www.w3.org/2000/svg" xmlns:xlink="http://www.w3.org/1999/xlink"><g id="tight-bounds" transform="matrix(1,0,0,1,0.2400000000000091,-0.09999999999999432)"><svg viewBox="0 0 395.52 247.2" height="247.2" width="395.52"><g><svg></svg></g><g><svg viewBox="0 0 395.52 247.2" height="247.2" width="395.52"><g transform="matrix(1,0,0,1,90.32763673469387,47.215199999999996)"><svg viewBox="0 0 214.86472653061224 152.7696" height="152.7696" width="214.86472653061224"><g><svg viewBox="0 0 214.86472653061224 152.7696" height="152.7696" width="214.86472653061224"><g><svg viewBox="0 0 214.86472653061224 152.7696" height="152.7696" width="214.86472653061224"><g><svg viewBox="0 0 214.86472653061224 152.7696" height="152.7696" width="214.86472653061224"><g id="textblocktransform"><svg viewBox="0 0 214.86472653061224 152.7696" height="152.7696" width="214.86472653061224" id="textblock"><g><svg viewBox="0 0 214.86472653061224 152.7696" height="152.7696" width="214.86472653061224"><g transform="matrix(1,0,0,1,0,0)"><svg width="214.86472653061224" viewBox="4 -29.399999618530273 41.349998474121094 29.399999618530273" height="152.7696" data-palette-color="#f5ba41"><path d="M14.05 0L4.5 0 4.5-25.4 4-29.4 16.1-29.4 24.9-11.9 33.9-29.4 45.35-29.4 45.35 0 35.8 0 35.8-16.85 35.25-16.85 33.15-11.45 29.5-3 20.4-3 16.6-11.45 14.55-16.85 14.05-16.85 14.05 0Z" opacity="1" transform="matrix(1,0,0,1,0,0)" fill="#f5ba41" class="undefined-text-0" data-fill-palette-color="primary" id="text-0"></path></svg></g></svg></g></svg></g></svg></g></svg></g></svg></g></svg></g><g><path d="M0 123.6c0-68.262 55.338-123.6 123.6-123.6 30.402 0 58.24 10.976 79.768 29.183l-11.147 0c-19.26-14.022-42.974-22.294-68.621-22.295-64.458 0-116.712 52.254-116.712 116.712 0 64.458 52.254 116.712 116.712 116.712 25.647 0 49.361-8.272 68.621-22.295l11.147 0c-21.528 18.206-49.366 29.183-79.768 29.183-68.262 0-123.6-55.338-123.6-123.6z" fill="#f5ba41" stroke="transparent" data-fill-palette-color="tertiary"></path></g></svg></g><defs></defs></svg><rect width="395.52" height="247.2" fill="none" stroke="none" visibility="hidden"></rect></g></svg></g></svg>